<svg id="Layer_1" data-name="Layer 1" xmlns="http://www.w3.org/2000/svg" viewBox="0 0 524.81 117.13"><defs><style>.cls-1{fill:#5d5e5e;}.cls-2{fill:#4a8dca;}.cls-3{fill:#6a6a6a;}</style></defs><path class="cls-1" d="M150.61,99.52a10.78,10.78,0,0,1-2.19,7.1,7.31,7.31,0,0,1-5.94,2.64,5.68,5.68,0,0,1-5-2.66h-.06V117h-4V91.15h4V94h.06a6.65,6.65,0,0,1,5.87-3.26,6.49,6.49,0,0,1,5.32,2.37A9.84,9.84,0,0,1,150.61,99.52Zm-4.14-.06a6.33,6.33,0,0,0-1.16-4A4,4,0,0,0,142.05,94a4.25,4.25,0,0,0-3.37,1.47,5.54,5.54,0,0,0-1.29,3.8v2.26a4.44,4.44,0,0,0,1.23,3.22,4.07,4.07,0,0,0,3,1.27,4.18,4.18,0,0,0,3.54-1.69A8,8,0,0,0,146.47,99.46Z"/><path class="cls-1" d="M171.27,99.82a9.47,9.47,0,0,1-2.49,6.87,8.94,8.94,0,0,1-6.75,2.57,8.75,8.75,0,0,1-6.51-2.44,9,9,0,0,1-2.43-6.62,9.47,9.47,0,0,1,2.49-6.94,9.21,9.21,0,0,1,6.89-2.54,8.53,8.53,0,0,1,6.47,2.43A9.23,9.23,0,0,1,171.27,99.82Zm-4.14.14a6.69,6.69,0,0,0-1.31-4.46A4.48,4.48,0,0,0,162.24,94a4.55,4.55,0,0,0-3.68,1.59,6.85,6.85,0,0,0-1.32,4.49,6.58,6.58,0,0,0,1.32,4.38,4.63,4.63,0,0,0,3.72,1.56,4.34,4.34,0,0,0,3.62-1.54A7.06,7.06,0,0,0,167.13,100Z"/><path class="cls-1" d="M193.69,108.83h-4.25l-3.25-11.74a5.88,5.88,0,0,1-.18-1c0-.36-.07-.65-.11-.87h-.07a12.12,12.12,0,0,1-.34,1.8L182,108.83h-4.18l-5.2-17.68h4.15l3.14,12.48a10.55,10.55,0,0,1,.26,1.73h.1a8.4,8.4,0,0,1,.31-1.8l3.64-12.41h3.82l3.33,12.52a17.1,17.1,0,0,1,.24,1.76h.11a11.38,11.38,0,0,1,.29-1.76l3-12.52h3.85Z"/><path class="cls-1" d="M204.17,101.16a5.15,5.15,0,0,0,1.47,3.68,5.43,5.43,0,0,0,3.85,1.26,9,9,0,0,0,2.88-.47,9.62,9.62,0,0,0,2.42-1.22v3.37a9.12,9.12,0,0,1-2.69,1.07,15.34,15.34,0,0,1-3.58.41,8,8,0,0,1-6.23-2.41,9.52,9.52,0,0,1-2.21-6.69,10.65,10.65,0,0,1,1.1-5,8.1,8.1,0,0,1,7.31-4.49A7.31,7.31,0,0,1,214.18,93a9,9,0,0,1,2,6.22v2Zm8.06-3a4.67,4.67,0,0,0-1-3.21,3.5,3.5,0,0,0-2.76-1.1A3.89,3.89,0,0,0,205.67,95a5.63,5.63,0,0,0-1.5,3.12Z"/><path class="cls-1" d="M229.85,95a3.28,3.28,0,0,0-1-.42,5.3,5.3,0,0,0-1.29-.19,3.34,3.34,0,0,0-2.82,1.49,6.48,6.48,0,0,0-1.07,3.86v9h-4V91.15h4v3.44h.07a5.82,5.82,0,0,1,1.78-2.76,4.19,4.19,0,0,1,2.75-1,4.24,4.24,0,0,1,1.6.24Z"/><path class="cls-1" d="M234.54,101.16a5.15,5.15,0,0,0,1.47,3.68,5.41,5.41,0,0,0,3.85,1.26,9,9,0,0,0,2.88-.47,9.62,9.62,0,0,0,2.42-1.22v3.37a9.08,9.08,0,0,1-2.7,1.07,15.32,15.32,0,0,1-3.57.41,8,8,0,0,1-6.23-2.41,9.48,9.48,0,0,1-2.21-6.69,10.65,10.65,0,0,1,1.09-5,8.1,8.1,0,0,1,7.31-4.49A7.29,7.29,0,0,1,244.54,93a9,9,0,0,1,2,6.22v2Zm8.06-3a4.72,4.72,0,0,0-1-3.21,3.51,3.51,0,0,0-2.77-1.1A3.87,3.87,0,0,0,236,95a5.63,5.63,0,0,0-1.5,3.12Z"/><path class="cls-1" d="M261.91,108.83v-2.76h-.07a6.29,6.29,0,0,1-5.8,3.19,6.57,6.57,0,0,1-5.33-2.38,9.75,9.75,0,0,1-2-6.46,10.73,10.73,0,0,1,2.2-7,7.26,7.26,0,0,1,5.9-2.65,6.49,6.49,0,0,1,3,.67,5.12,5.12,0,0,1,2,2h.07V82.66h4v26.17Zm0-10.32a4.48,4.48,0,0,0-1.25-3.2,4.39,4.39,0,0,0-6.59.33,7.64,7.64,0,0,0-1.24,4.66,6.51,6.51,0,0,0,1.22,4.19,4,4,0,0,0,3.31,1.51,4.09,4.09,0,0,0,3.24-1.53,5.86,5.86,0,0,0,1.31-4Z"/><path class="cls-1" d="M296.09,99.52a10.82,10.82,0,0,1-2.17,7.09,7.27,7.27,0,0,1-5.93,2.65,5.71,5.71,0,0,1-5-2.66h-.07v2.23h-4V82.66h4V94H283a6.63,6.63,0,0,1,5.87-3.26,7,7,0,0,1,3.89,1.07,6.78,6.78,0,0,1,2.5,3.07A11.71,11.71,0,0,1,296.09,99.52ZM292,99.46a6.2,6.2,0,0,0-1.18-4A4,4,0,0,0,287.53,94a4.29,4.29,0,0,0-3.38,1.47,5.48,5.48,0,0,0-1.28,3.76v2.33a4.42,4.42,0,0,0,1.21,3.17,4.06,4.06,0,0,0,3.07,1.29,4.18,4.18,0,0,0,3.54-1.69A8,8,0,0,0,292,99.46Z"/><path class="cls-1" d="M300.52,117.13a9.27,9.27,0,0,1-2.45-.27v-3.4a4.77,4.77,0,0,0,1.95.43,3.28,3.28,0,0,0,3.11-2.26l1.2-2.8-7.07-17.68h4.48l4.15,12.45a12.21,12.21,0,0,1,.38,1.69h.07l.43-1.69,4.28-12.45h4.06L307.44,111a11.34,11.34,0,0,1-2.93,4.7A5.93,5.93,0,0,1,300.52,117.13Z"/><path class="cls-1" d="M348.67,108.83V93.07c0-1.2.06-3,.2-5.32h-.07a15.54,15.54,0,0,1-.7,2.76l-7.5,18.32h-2.67l-7.55-18.14c-.19-.61-.43-1.59-.7-2.94h-.11c0,.31.07,1.12.11,2.44s.07,2.44.07,3.4v15.24h-3.82V84.07h5.87l6.3,15.64a21.24,21.24,0,0,1,1.12,3.42h.11l1.31-3.45,6.47-15.61h5.63v24.76Z"/><path class="cls-1" d="M362.71,84.9a2.11,2.11,0,0,1-.72,1.64,2.6,2.6,0,0,1-3.46,0,2.13,2.13,0,0,1-.71-1.64,2.2,2.2,0,0,1,.72-1.67,2.55,2.55,0,0,1,3.47,0A2.22,2.22,0,0,1,362.71,84.9Zm-4.49,23.93V91.15h4v17.68Z"/><path class="cls-1" d="M379.76,108.09a10,10,0,0,1-5,1.17,9.31,9.31,0,0,1-4.55-1.1,7.77,7.77,0,0,1-3.1-3.15,9.21,9.21,0,0,1-1.12-4.55,11,11,0,0,1,1.15-5.1,8.19,8.19,0,0,1,3.33-3.42,10.28,10.28,0,0,1,5.07-1.22,11.28,11.28,0,0,1,2.33.25,6.79,6.79,0,0,1,1.92.65V95.4A6.88,6.88,0,0,0,375.68,94a5.24,5.24,0,0,0-4,1.67,6.27,6.27,0,0,0-1.54,4.44,6.06,6.06,0,0,0,1.48,4.34,5.29,5.29,0,0,0,4,1.57,6.22,6.22,0,0,0,2.06-.4,8,8,0,0,0,2.09-1.09Z"/><path class="cls-1" d="M393.73,95a3.39,3.39,0,0,0-1-.42,5.3,5.3,0,0,0-1.29-.19,3.34,3.34,0,0,0-2.82,1.49,6.48,6.48,0,0,0-1.07,3.86v9h-4V91.15h4v3.44h.07a5.82,5.82,0,0,1,1.78-2.76,4.17,4.17,0,0,1,2.75-1,4.24,4.24,0,0,1,1.6.24Z"/><path class="cls-1" d="M412.5,99.82a9.47,9.47,0,0,1-2.48,6.87,9,9,0,0,1-6.75,2.57,8.77,8.77,0,0,1-6.52-2.44,9,9,0,0,1-2.42-6.62,9.51,9.51,0,0,1,2.48-6.94,9.22,9.22,0,0,1,6.89-2.54,8.53,8.53,0,0,1,6.47,2.43A9.19,9.19,0,0,1,412.5,99.82Zm-4.14.14a6.69,6.69,0,0,0-1.3-4.46A4.48,4.48,0,0,0,403.48,94a4.54,4.54,0,0,0-3.68,1.59,6.79,6.79,0,0,0-1.33,4.49,6.53,6.53,0,0,0,1.33,4.38,4.61,4.61,0,0,0,3.71,1.56,4.36,4.36,0,0,0,3.63-1.54A7.12,7.12,0,0,0,408.36,100Z"/><path class="cls-1" d="M426.82,103.77a4.85,4.85,0,0,1-1.89,4,8,8,0,0,1-5.15,1.51,11.57,11.57,0,0,1-2.39-.28,9.83,9.83,0,0,1-2.23-.69v-3.81a8.55,8.55,0,0,0,2.41,1.22,7.63,7.63,0,0,0,2.37.44c1.91,0,2.86-.64,2.86-1.9a1.84,1.84,0,0,0-.28-1.08,3.06,3.06,0,0,0-1-.81,18,18,0,0,0-2.16-1,11.25,11.25,0,0,1-2.57-1.44,4.3,4.3,0,0,1-1.24-1.62,5.39,5.39,0,0,1-.4-2.17A4.73,4.73,0,0,1,417,92.22a7.54,7.54,0,0,1,4.86-1.5,11,11,0,0,1,2.08.22,9.55,9.55,0,0,1,1.9.52v3.61a7.24,7.24,0,0,0-1.92-.89,7.66,7.66,0,0,0-2.19-.33,3,3,0,0,0-1.88.53,1.64,1.64,0,0,0-.7,1.36,1.94,1.94,0,0,0,.55,1.46,9.19,9.19,0,0,0,2.56,1.34,8.81,8.81,0,0,1,3.51,2.23A4.52,4.52,0,0,1,426.82,103.77Z"/><path class="cls-1" d="M447.2,99.82a9.47,9.47,0,0,1-2.48,6.87,9,9,0,0,1-6.75,2.57,8.77,8.77,0,0,1-6.52-2.44A9,9,0,0,1,429,100.2a9.46,9.46,0,0,1,2.48-6.94,9.22,9.22,0,0,1,6.89-2.54,8.53,8.53,0,0,1,6.47,2.43A9.19,9.19,0,0,1,447.2,99.82Zm-4.14.14a6.69,6.69,0,0,0-1.3-4.46,5,5,0,0,0-7.26.07,6.79,6.79,0,0,0-1.33,4.49,6.53,6.53,0,0,0,1.33,4.38,4.6,4.6,0,0,0,3.71,1.56,4.36,4.36,0,0,0,3.63-1.54A7.12,7.12,0,0,0,443.06,100Z"/><path class="cls-1" d="M460,85.92a4.63,4.63,0,0,0-1.9-.43,2.55,2.55,0,0,0-2,.84,3.68,3.68,0,0,0-.72,2.46v2.36h3.95v3.21h-3.95v14.47h-4V94.36h-3V91.15h3V88.56a6.73,6.73,0,0,1,.8-3.29A5.64,5.64,0,0,1,454.4,83a6.81,6.81,0,0,1,3.31-.8,7,7,0,0,1,2.33.32Z"/><path class="cls-1" d="M472.24,108.66a5.52,5.52,0,0,1-1.29.4,8.69,8.69,0,0,1-1.79.2q-5.19,0-5.19-5.59V94.36H461V91.15H464V87.08l4-1.23v5.3h4.27v3.21H468v8.57a3.61,3.61,0,0,0,.61,2.37,2.35,2.35,0,0,0,1.89.7,3.43,3.43,0,0,0,.88-.15,3.32,3.32,0,0,0,.89-.39Z"/><g id="g2874"><g id="g2920"><path id="path2922" class="cls-2" d="M83.6,61.07a2.11,2.11,0,0,0-2.9-1c-9.79,4.18-10.93,23.85-7.62,26.08,2,1.14,16.17-14.8,10.52-25.09"/></g><g id="g2924"><path id="path2926" class="cls-2" d="M28.28,98.56c0-2.28.18-5,.41-8.09s.46-6.21.7-9.28l-7.64-.14A25.51,25.51,0,0,1,17,80.7c-2.6-.91-1.93-4.49-1.59-5.25C16.89,72.2,21.21,72,22.7,72l7.64-.12c.2-1.23.33-2.24.39-3s.61-5.92.72-7,.23-2,.38-3a12.33,12.33,0,0,1,.63-2.42A8.12,8.12,0,0,1,35,53a6.79,6.79,0,0,1,4-1.44c6,.69,6.79,3.92,7,5.56a15.53,15.53,0,0,1-.33,5.23c-.19.79-1.23,7.23-1.62,9.33,2.82-.13,8,.07,9,0a7.25,7.25,0,0,1,3.89.91c1.77,1.43,1.54,5.46.29,6.44A7.59,7.59,0,0,1,53,80.47l-10.13.7q-.46,3.54-.84,6.57c-.26,2-.49,3.63-.68,4.86-.21,1.58-.35,3.49-.44,5.73a31.82,31.82,0,0,0,.41,6.46,9.61,9.61,0,0,0,2.13,5c2.3,2.63,17.82,4.78,17.51-6.47-.51-19.06.82-36.72,6-44.7,5.45-8.4,12.77-11.43,15.93-11.37a11,11,0,0,1,6.55,1.9,11.51,11.51,0,0,1,3.68,4.34,17.27,17.27,0,0,1,1.55,5.23,32.17,32.17,0,0,1,.32,4.42A34.41,34.41,0,0,1,92.21,75.4,93.72,93.72,0,0,1,86,87.94Q82.39,94,78.74,99t-5.67,7.74c-2.89,3.85,7.53,11.81,13.7,8,1.17-.78,2.32-1.59,3.45-2.45,21.34-16.41,20-80.81,3.64-102.14s-51.44-5-72.77,11.36C-11.74,46.77-.42,76.42,16,97.74c5.16,6.72,10.79,12.13,14,14.29,2.28,1.47,0-2.66-.64-5.15a32.55,32.55,0,0,1-1-8.32"/></g></g><path id="path2870" class="cls-3" d="M279.37,16.63h6.55V70.09h-6.55Z"/><g id="g2880"><path id="path2882" class="cls-3" d="M322.17,47.49a17.07,17.07,0,0,0-1.84-6.81Q317.66,36,311.42,36a9.85,9.85,0,0,0-7.51,3.26,12.36,12.36,0,0,0-3.21,8.28Zm-2.35-15.31a14.81,14.81,0,0,1,5.9,5,17.62,17.62,0,0,1,2.61,6.88,46,46,0,0,1,.57,8.59H300.55q.19,6,2.78,9.55c1.74,2.39,4.42,3.59,8.06,3.59a10.33,10.33,0,0,0,8.12-3.4,11.62,11.62,0,0,0,2.41-4.57h6.44a13.76,13.76,0,0,1-1.69,4.79A17.47,17.47,0,0,1,323.46,67a15.16,15.16,0,0,1-7.33,3.93,22.09,22.09,0,0,1-5.31.58,16.26,16.26,0,0,1-12.26-5.29q-5-5.3-5-14.84,0-9.39,5.06-15.24a16.66,16.66,0,0,1,13.24-5.86,17.66,17.66,0,0,1,8,1.94"/></g><g id="g2884"><path id="path2886" class="cls-3" d="M341.1,57.86a9.29,9.29,0,0,0,1.67,5q2.52,3.16,8.76,3.17a13.09,13.09,0,0,0,6.54-1.59,5.22,5.22,0,0,0,2.82-4.89,4.18,4.18,0,0,0-2.25-3.82,27.22,27.22,0,0,0-5.7-1.86l-5.29-1.31a26,26,0,0,1-7.47-2.76,8.24,8.24,0,0,1-4.29-7.35,11.19,11.19,0,0,1,4-9q4-3.42,10.86-3.42,8.93,0,12.87,5.17a11.1,11.1,0,0,1,2.4,7.06h-6.19a7.36,7.36,0,0,0-1.6-4q-2.31-2.56-8-2.57a9.7,9.7,0,0,0-5.75,1.42,4.38,4.38,0,0,0-2,3.73,4.58,4.58,0,0,0,2.57,4.06,15.45,15.45,0,0,0,4.38,1.6l4.41,1.06q7.18,1.71,9.64,3.31,3.82,2.51,3.82,7.9a11.93,11.93,0,0,1-4,9q-4,3.79-12.17,3.79-8.81,0-12.48-4a14.84,14.84,0,0,1-3.92-9.77Z"/></g><g id="g2888"><path id="path2890" class="cls-3" d="M378.36,57.86a9.46,9.46,0,0,0,1.67,5q2.54,3.16,8.77,3.17a13.14,13.14,0,0,0,6.54-1.59,5.22,5.22,0,0,0,2.82-4.89,4.17,4.17,0,0,0-2.26-3.82,27.07,27.07,0,0,0-5.69-1.86l-5.29-1.31a25.84,25.84,0,0,1-7.47-2.76,8.24,8.24,0,0,1-4.29-7.35,11.16,11.16,0,0,1,4-9q4-3.42,10.86-3.42,8.93,0,12.87,5.17a11.1,11.1,0,0,1,2.4,7.06h-6.19a7.43,7.43,0,0,0-1.6-4q-2.31-2.56-8-2.57a9.75,9.75,0,0,0-5.76,1.42,4.4,4.4,0,0,0-1.95,3.73,4.57,4.57,0,0,0,2.57,4.06,15.37,15.37,0,0,0,4.37,1.6l4.41,1.06q7.2,1.71,9.65,3.31c2.54,1.67,3.82,4.3,3.82,7.9a12,12,0,0,1-4,9q-4,3.79-12.18,3.79-8.81,0-12.47-4a14.84,14.84,0,0,1-3.92-9.77Z"/></g><g id="g2892"><path id="path2894" class="cls-3" d="M435.91,60.9a24.79,24.79,0,0,0,2.39-11,19.65,19.65,0,0,0-1.73-8.86q-2.73-5.38-9.43-5.38-5.94,0-8.63,4.58a21.37,21.37,0,0,0-2.7,11,18.63,18.63,0,0,0,2.7,10.36q2.7,4.14,8.56,4.14,6.45,0,8.84-4.93M440,35q5.17,5,5.17,14.76,0,9.42-4.55,15.57t-14.13,6.14q-8,0-12.69-5.44t-4.69-14.59q0-9.82,4.95-15.64T427.32,30A17.48,17.48,0,0,1,440,35"/></g><g id="g2896"><path id="path2898" class="cls-3" d="M453.18,31.11h6.23v5.53a17.29,17.29,0,0,1,5.86-4.91,15.67,15.67,0,0,1,6.88-1.49q8.3,0,11.2,5.78c1.07,2.11,1.61,5.14,1.61,9.07v25H478.3V45.52a13.39,13.39,0,0,0-1.06-5.75c-1.16-2.42-3.28-3.64-6.33-3.64a12.7,12.7,0,0,0-3.82.48,9.75,9.75,0,0,0-4.73,3.2,9.42,9.42,0,0,0-2.13,4,26.69,26.69,0,0,0-.49,5.88V70.09h-6.56Z"/></g><g id="g2900"><path id="path2902" class="cls-3" d="M498.53,57.86a9.37,9.37,0,0,0,1.67,5c1.68,2.11,4.61,3.17,8.77,3.17a13.08,13.08,0,0,0,6.53-1.59,5.22,5.22,0,0,0,2.83-4.89,4.18,4.18,0,0,0-2.26-3.82,27.07,27.07,0,0,0-5.69-1.86l-5.29-1.31a25.84,25.84,0,0,1-7.47-2.76,8.23,8.23,0,0,1-4.3-7.35,11.19,11.19,0,0,1,4-9q4-3.42,10.86-3.42,8.94,0,12.88,5.17a11.15,11.15,0,0,1,2.39,7.06h-6.18a7.51,7.51,0,0,0-1.6-4q-2.31-2.56-8-2.57a9.73,9.73,0,0,0-5.76,1.42A4.4,4.4,0,0,0,500,40.88a4.57,4.57,0,0,0,2.57,4.06,15.25,15.25,0,0,0,4.37,1.6l4.41,1.06q7.2,1.71,9.64,3.31,3.82,2.51,3.83,7.9a12,12,0,0,1-4,9q-4,3.79-12.18,3.79-8.81,0-12.47-4a14.85,14.85,0,0,1-3.93-9.77Z"/></g><g id="g2904"><path id="path2906" class="cls-1" d="M152.06,64.86a12.77,12.77,0,0,1-.22,2.74,2.9,2.9,0,0,1-.59,1.34,3.24,3.24,0,0,1-1.07.69,9.44,9.44,0,0,1-1.67.52,16.5,16.5,0,0,1-2.07.35,20.92,20.92,0,0,1-2.25.12,16.31,16.31,0,0,1-5.27-.77,8.66,8.66,0,0,1-3.69-2.37,9.85,9.85,0,0,1-2.15-4,21.24,21.24,0,0,1-.69-5.76V39.14h-4.34a1.29,1.29,0,0,1-1.18-1,9,9,0,0,1-.4-3.19,16,16,0,0,1,.1-2,4.31,4.31,0,0,1,.3-1.27,1.42,1.42,0,0,1,.51-.68,1.28,1.28,0,0,1,.71-.2h4.3V22.79a1.26,1.26,0,0,1,.22-.73,1.67,1.67,0,0,1,.81-.55,6.06,6.06,0,0,1,1.58-.32,30.68,30.68,0,0,1,4.95,0,5.79,5.79,0,0,1,1.57.32,1.83,1.83,0,0,1,.81.55,1.21,1.21,0,0,1,.24.73v8.07h7.87a1.28,1.28,0,0,1,.71.2,1.56,1.56,0,0,1,.51.68A5,5,0,0,1,152,33a16,16,0,0,1,.1,2,9,9,0,0,1-.4,3.19,1.29,1.29,0,0,1-1.18,1h-7.91v17a8.49,8.49,0,0,0,.93,4.44,3.63,3.63,0,0,0,3.33,1.48,7.16,7.16,0,0,0,1.46-.14,9.05,9.05,0,0,0,1.16-.33c.34-.12.62-.22.85-.32a1.76,1.76,0,0,1,.63-.14.92.92,0,0,1,.47.14,1,1,0,0,1,.34.57A9.34,9.34,0,0,1,152,63a13.47,13.47,0,0,1,.1,1.86"/></g><g id="g2908"><path id="path2910" class="cls-1" d="M179.45,53.05h-3.89a21.31,21.31,0,0,0-4.23.37,8,8,0,0,0-2.84,1.1,4.54,4.54,0,0,0-1.6,1.76,5.29,5.29,0,0,0-.51,2.37,4.55,4.55,0,0,0,1.45,3.57,5.72,5.72,0,0,0,4,1.3,7.52,7.52,0,0,0,4-1.09,16.54,16.54,0,0,0,3.67-3.21Zm10,15.5a1.07,1.07,0,0,1-.41.89,2.66,2.66,0,0,1-1.27.47,16.76,16.76,0,0,1-2.58.14,17,17,0,0,1-2.66-.14,2.21,2.21,0,0,1-1.17-.47,1.15,1.15,0,0,1-.35-.89V65.67a16.32,16.32,0,0,1-5.09,3.73,14.69,14.69,0,0,1-6.35,1.34A17.7,17.7,0,0,1,164.3,70a11.81,11.81,0,0,1-4.18-2.23,10,10,0,0,1-2.74-3.67,12.49,12.49,0,0,1-1-5.11,11.65,11.65,0,0,1,1.23-5.5,10.09,10.09,0,0,1,3.7-3.85,18.06,18.06,0,0,1,6.1-2.25,43.29,43.29,0,0,1,8.48-.74h3.53V44.45a11.5,11.5,0,0,0-.35-3A5.07,5.07,0,0,0,178,39.34a4.68,4.68,0,0,0-2.11-1.26,11.31,11.31,0,0,0-3.27-.4,16.73,16.73,0,0,0-4.56.57,25.1,25.1,0,0,0-3.55,1.25q-1.54.69-2.58,1.26a3.76,3.76,0,0,1-1.68.57,1.15,1.15,0,0,1-.79-.29,2,2,0,0,1-.57-.81,5.46,5.46,0,0,1-.34-1.29,10.07,10.07,0,0,1-.13-1.71,7.5,7.5,0,0,1,.21-2,3,3,0,0,1,.77-1.31,7.29,7.29,0,0,1,2-1.3,21.64,21.64,0,0,1,3.32-1.32,29.19,29.19,0,0,1,4.16-1,27.15,27.15,0,0,1,4.64-.39,28,28,0,0,1,7.29.83,12.39,12.39,0,0,1,5,2.56,10,10,0,0,1,2.84,4.44,20.89,20.89,0,0,1,.89,6.45Z"/></g><g id="g2912"><path id="path2914" class="cls-1" d="M233.28,68.47a1.15,1.15,0,0,1-.22.71,1.56,1.56,0,0,1-.81.49,8.9,8.9,0,0,1-1.6.28c-.68.07-1.56.1-2.64.1s-2,0-2.7-.08a9.28,9.28,0,0,1-1.7-.26,2.53,2.53,0,0,1-1-.51,3.05,3.05,0,0,1-.64-.85L209.88,49.28V68.43a1.06,1.06,0,0,1-.25.71,1.85,1.85,0,0,1-.83.51,7.7,7.7,0,0,1-1.56.3,30.68,30.68,0,0,1-5,0,7.7,7.7,0,0,1-1.56-.3,1.85,1.85,0,0,1-.83-.51,1.06,1.06,0,0,1-.25-.71V15.08a1.15,1.15,0,0,1,.25-.73,1.79,1.79,0,0,1,.83-.55,6.8,6.8,0,0,1,1.56-.34,25.58,25.58,0,0,1,5,0,6.8,6.8,0,0,1,1.56.34,1.79,1.79,0,0,1,.83.55,1.15,1.15,0,0,1,.25.73V46.85l10.71-14.41a4.61,4.61,0,0,1,.73-.85,2.93,2.93,0,0,1,1.07-.57,9.73,9.73,0,0,1,1.67-.3,25,25,0,0,1,2.53-.1c1,0,1.85,0,2.54.1a8.77,8.77,0,0,1,1.66.3,1.85,1.85,0,0,1,.87.51,1.21,1.21,0,0,1,.25.75,3.28,3.28,0,0,1-.31,1.3,6.5,6.5,0,0,1-.91,1.46l-10.59,12,12.25,19a8.39,8.39,0,0,1,.71,1.4,3,3,0,0,1,.22,1.07"/></g><g id="g2916"><path id="path2918" class="cls-1" d="M260.79,46.36a10.47,10.47,0,0,0-1.72-6.75q-1.85-2.46-5.7-2.46a7.37,7.37,0,0,0-3.39.73,6.86,6.86,0,0,0-2.39,2,8.7,8.7,0,0,0-1.46,2.92,14.26,14.26,0,0,0-.59,3.59Zm9.9,2.92a3.94,3.94,0,0,1-.83,2.76,3,3,0,0,1-2.29.89h-22a14.88,14.88,0,0,0,.55,4.2,7.93,7.93,0,0,0,1.74,3.21,7.53,7.53,0,0,0,3.08,2,13,13,0,0,0,4.53.69,25.18,25.18,0,0,0,4.7-.38,31.9,31.9,0,0,0,3.51-.85c1-.31,1.81-.6,2.46-.85a4.48,4.48,0,0,1,1.58-.39,1.25,1.25,0,0,1,.61.14,1.13,1.13,0,0,1,.4.51,3.29,3.29,0,0,1,.23,1c0,.45.06,1,.06,1.69s0,1.1,0,1.52a8.46,8.46,0,0,1-.13,1.07,2.52,2.52,0,0,1-.24.76,3.15,3.15,0,0,1-.42.58,4.89,4.89,0,0,1-1.45.77,21.42,21.42,0,0,1-3,1,41,41,0,0,1-4.18.81,34.59,34.59,0,0,1-5,.34,26.62,26.62,0,0,1-8.45-1.21,15.1,15.1,0,0,1-6.07-3.7,15.42,15.42,0,0,1-3.63-6.24,29.33,29.33,0,0,1-1.2-8.85,28,28,0,0,1,1.26-8.7,18.38,18.38,0,0,1,3.65-6.57,15.8,15.8,0,0,1,5.82-4.12,20,20,0,0,1,7.73-1.42,20.29,20.29,0,0,1,7.77,1.34A13.92,13.92,0,0,1,266.67,35a15,15,0,0,1,3.05,5.62,24.44,24.44,0,0,1,1,7.06Z"/></g></svg>